<?xml version="1.0" encoding="utf-8"?>
<!-- Generator: Adobe Illustrator 21.1.0, SVG Export Plug-In . SVG Version: 6.00 Build 0)  -->
<svg version="1.1" id="Capa_1" xmlns="http://www.w3.org/2000/svg" xmlns:xlink="http://www.w3.org/1999/xlink" x="0px" y="0px"
	 viewBox="0 0 503.9 503.9" style="enable-background:new 0 0 503.9 503.9;" xml:space="preserve">
<style type="text/css">
	.st0{fill:#009AAA;}
</style>
<g>
	<g>
		<path class="st0" d="M499,28.7l-7.9-7.9l-4-4l-5.9-5.9l0,0l-5.9-5.9c-6.6-6.5-17.2-6.5-23.7,0l-11.9,11.9
			c-4.2,4.2-5.8,10.4-4.3,16.2l-72.9,72.9c-0.5,0.5-0.9,0.9-1.4,1.4V84.1c0-0.5-0.1-1-0.2-1.5c11.6-4,18.6-15.8,16.6-27.9
			s-12.5-21-24.8-20.9H151.2c-12.3,0-22.8,8.8-24.8,20.9c-2,12.1,5,23.9,16.6,27.9c0,0.5-0.2,1-0.2,1.5v182.1L12.4,396.6
			C4.5,404.5,0,415.2,0,426.3c0,11.1,4.4,21.8,12.3,29.7l35.6,35.6c7.8,7.9,18.5,12.4,29.7,12.4s21.8-4.4,29.7-12.3l39.6-39.6
			l4.8,38c0,0.3,0.1,0.7,0.2,1c1.9,7.5,8.6,12.7,16.3,12.7s14.4-5.3,16.3-12.7c0.1-0.3,0.1-0.6,0.2-1l8.6-69.2c0-0.2-0.1-0.3,0-0.5
			c0-0.2,0.1-0.3,0.1-0.5v-14.2l33.6-33.6v47.8c0,0.2,0.1,0.4,0.1,0.5c0,0.2-0.1,0.3,0,0.5l8.6,69.2c0,0.3,0.1,0.7,0.2,1
			c1.9,7.5,8.6,12.7,16.3,12.7s14.4-5.2,16.3-12.7c0.1-0.3,0.1-0.7,0.2-1l8.6-69.2c0-0.2-0.1-0.3,0-0.5c0-0.2,0.1-0.3,0.1-0.5v-98.2
			l33.6-33.6v131.7c0,0.2,0.1,0.4,0.1,0.5c0,0.2-0.1,0.3,0,0.5l8.6,69.2c0,0.3,0.1,0.7,0.2,1c1.9,7.5,8.6,12.7,16.3,12.7
			s14.4-5.2,16.3-12.7c0.1-0.3,0.1-0.7,0.2-1l8.6-69.2c0-0.2-0.1-0.3,0-0.5c0-0.2,0.1-0.3,0.1-0.5V182.5c11.6-14.4,23.9-28.1,37-41
			L471,68.5c5.8,1.6,12,0,16.2-4.3L499,52.4C505.5,45.8,505.5,35.2,499,28.7z M142.8,58.9c0-4.6,3.8-8.4,8.4-8.4h201.4
			c4.6,0,8.4,3.8,8.4,8.4s-3.8,8.4-8.4,8.4H151.2C146.6,67.3,142.8,63.5,142.8,58.9z M344.3,84.1v39.1c-5.9,5.4-11.5,10.3-16.8,14.6
			V84.1H344.3z M277.1,172.2V84.1h33.6v67C300.2,159.1,288.9,166.1,277.1,172.2z M280.4,201.9l21.6,21.6l-75.5,54L280.4,201.9z
			 M260.3,84.1v80c-5.7-1.1-11.7-0.1-16.8,2.7V84.1L260.3,84.1z M226.8,84.1v98.2l-33.6,33.6V84.1H226.8z M176.4,84.1v148.5
			l-16.8,16.8V84.1L176.4,84.1z M168,486.4l-6.2-49.5l11.2-11.2l0,0l2.9-2.9L168,486.4z M252,486.4l-7.3-58.2h14.6L252,486.4z
			 M260.3,411.4h-16.8v-56.2l16.8-16.8L260.3,411.4L260.3,411.4z M320.9,254.1L166.8,408.3l-5.6,5.6l0,0l-65.8,65.8
			c-9.9,9.6-25.6,9.6-35.5,0l-35.6-35.6c-4.7-4.7-7.4-11.1-7.4-17.8s2.7-13.1,7.4-17.8L249.8,183c3.3-3.2,8.5-3.2,11.8,0.1l1.3,1.3
			l5.6,5.6l-84.5,118.2L65.7,426.3c-2.1,2.1-2.9,5.2-2.2,8.1c0.8,2.9,3,5.2,5.9,5.9c2.9,0.8,6-0.1,8.1-2.2L195.8,320L314,235.5l1,1
			l0,0l5.9,5.9c1.6,1.5,2.5,3.7,2.5,5.9S322.5,252.6,320.9,254.1z M335.9,486.4l-7.3-58.2h14.6L335.9,486.4z M344.3,411.4h-16.8
			V271.3l5.2-5.2c2.4-2.3,4.2-5.1,5.5-8.2c3.9-9.4,1.7-20.3-5.5-27.4l-1.9-1.9c3.9-8.1,8.4-15.9,13.5-23.3V411.4z M318.3,216
			l-30.4-30.4c24.8-13.8,47.7-30.8,68.2-50.5l12.7,12.7C349.1,168.2,332.2,191.2,318.3,216z M386.2,129.5c-2.1,2.1-3.9,4-5.9,6
			l-12-12c2-1.9,4-3.8,6-5.9l71.2-71.2l11.9,11.9L386.2,129.5z M475.2,52.4l-23.7-23.8l11.9-11.9l15.8,15.8l2,2l0,0l5.9,5.9
			L475.2,52.4z"/>
	</g>
</g>
</svg>
