<?xml version="1.0" encoding="utf-8"?>
<!-- Generator: Adobe Illustrator 21.1.0, SVG Export Plug-In . SVG Version: 6.00 Build 0)  -->
<svg version="1.1" id="Layer_1" xmlns="http://www.w3.org/2000/svg" xmlns:xlink="http://www.w3.org/1999/xlink" x="0px" y="0px"
	 viewBox="0 0 512.6 512.6" style="enable-background:new 0 0 512.6 512.6;" xml:space="preserve">
<style type="text/css">
	.st0{fill:#009AAA;}
</style>
<g transform="translate(0 1)">
	<g>
		<g>
			<path class="st0" d="M128,334.1c18.8,0,34.1-15.4,34.1-34.1s-15.4-34.1-34.1-34.1S93.9,281.2,93.9,300
				C93.9,318.8,109.2,334.1,128,334.1z M128,282.9c9.4,0,17.1,7.7,17.1,17.1s-7.7,17.1-17.1,17.1s-17.1-7.7-17.1-17.1
				S118.6,282.9,128,282.9z"/>
			<path class="st0" d="M512,290.6c0-59.2-43.7-108.8-100.4-117.9l-14.3-68.9h12.6c1.2,17.1,6.9,34.3,29.6,40.1
				c4.3,0.9,9.4,1.7,13.7,1.7c6.8,0,14.5-1.7,22.2-3.4l31.6-12.8c5.1-1.7,6.8-6,5.1-11.1c-1.7-5.1-6.8-6.8-11.1-5.1l-31.6,12.8
				c-8.5,3.4-17.1,3.4-24.7,1.7c-11.6-2.9-16.4-9.5-17.6-23.9h8.2c9.4,0,17.1-7.7,17.1-17.1V69.6c0-9.4-7.7-17.1-17.1-17.1H324.3
				c-9.4,0-17.1,7.7-17.1,17.1v17.1c0,9.4,7.7,17.1,17.1,17.1h10.1l16.9,74.7c-29.7,10.9-54.2,33.4-67.5,63.5L142.4,233l-29.8-120.7
				h13.7c15.4,0,27.3-11.9,27.3-28.2c0-12.8-8.5-23-20.5-26.5L58.9,40.6c-8.5-1.7-16.2,0-23,5.1S25.6,58.5,25.6,67.1v18.8
				c0,14.5,11.9,26.5,26.5,26.5h0.8l4.1,17.1H8.5c-5.1,0-8.5,3.4-8.5,8.5s3.4,8.5,8.5,8.5h8.5v8.5c0,5.1,3.4,8.5,8.5,8.5
				c4.3,0,8.5-3.4,8.5-8.5v-8.5H61l24,100.7c-15.4,12.5-25.2,31.6-25.2,52.9c0,16.2,5.7,31.1,15.3,42.9l-37.9,76.6h-3
				c-14.5,0-25.6,11.1-25.6,25.6c0,14.5,11.9,25.6,25.6,25.6h435.2c14.5,0,25.6-11.1,25.6-25.6c0-14.5-11.9-25.6-25.6-25.6h-4.7
				l-6.1-28.8C490.7,368.9,512,332,512,290.6z M128,368.3c5.1,0,10.2-0.9,14.5-1.7l144.7-18.7c20.8,38.4,61.5,63.1,105.3,63.1
				c2.9,0,5.7-0.1,8.5-0.3l2,8.8H99.2l26.6-51.3C126.5,368.2,127.3,368.3,128,368.3z M324.3,69.6h110.9v17.1h-48.6h-45.2h-17.1
				L324.3,69.6L324.3,69.6z M351.6,103.7h27.3l14.3,67.4c-0.2,0-0.4,0-0.7,0c-8.5,0-16.9,0.9-24.9,2.6L351.6,103.7z M362.9,193.3
				c0.5,0,1,0,1.5,0c9.4-2.6,18.8-4.3,28.2-4.3c2.6,0,5.1,0.1,7.6,0.3c1.3,0.1,2.7,0.3,4.3,0.6c1,0.3,1.9,0.4,2.9,0.2
				c49.4,7.2,87.6,50,87.6,101.3c0,56.3-46.1,102.4-102.4,102.4c-35.7,0-68.1-18.7-86.9-48.4l87.7-11.3c23,0,41.8-19.6,41.8-42.7
				c0-23.9-18.8-42.7-41.8-42.7l-91.3-6C315.2,218.5,337,201,362.9,193.3z M42.7,85.8V67.1c0-3.4,0.9-6,3.4-8.5
				c1.7-0.9,3.4-1.7,6-1.7c0.9,0,1.7,0.9,2.6,0.9l74.2,17.1c4.3,0.9,7.7,5.1,7.7,10.2c0,6-4.3,10.2-10.2,10.2h-24.7H59.7h-7.7
				C46.9,95.2,42.7,90.9,42.7,85.8z M94.7,112.3l30.7,116.9c-8.5,0.9-17.1,2.6-24.7,6L70.8,112.3H94.7z M128,248.8c1.7,0,3.4,0,6,0
				l257.7,17.1c0.9,0,0.9,0,0.9,0c14.5,0,25.6,11.1,25.6,25.6c0,14.5-11.1,25.6-25.6,25.6h-0.9L282,331.2l-2.9,0.4l0,0l-139.1,17.9
				c-5.2,1.3-10.2,1.8-15,1.6c-0.9-0.5-1.9-0.7-2.9-0.7c-11.9-0.9-22.1-6-30.7-14.5c-9-9.3-14.6-22.1-14.6-35.9
				C76.8,271.9,99.8,248.8,128,248.8z M88.7,356.3c6,4.3,12.8,6.8,19.6,9.4l-28.2,53.8H56.3L88.7,356.3z M477.9,445.1
				c0,5.1-4.3,8.5-8.5,8.5H34.1c-5.1,0-8.5-3.4-8.5-8.5s4.3-8.5,8.5-8.5h8.5h42.7h328.5h42.7h12.8
				C474.5,436.5,477.9,440,477.9,445.1z M446.3,419.5h-25.6l-2.6-11.1c1.4-0.4,2.8-0.8,4.1-1.3c6.9-1.8,13.5-4.2,19.8-7.1
				L446.3,419.5z"/>
		</g>
	</g>
</g>
</svg>
