<?xml version="1.0" encoding="utf-8"?>
<!-- Generator: Adobe Illustrator 21.1.0, SVG Export Plug-In . SVG Version: 6.00 Build 0)  -->
<svg version="1.1" id="Layer_1" xmlns="http://www.w3.org/2000/svg" xmlns:xlink="http://www.w3.org/1999/xlink" x="0px" y="0px"
	 viewBox="0 0 512 512" style="enable-background:new 0 0 512 512;" xml:space="preserve">
<style type="text/css">
	.st0{fill:#EEEEEE;}
</style>
<g>
	<g>
		<path class="st0" d="M448.5,37.9H348.3c-4.8,0-8.6,3.9-8.6,8.6s3.9,8.6,8.6,8.6h100.2c4.8,0,8.6-3.9,8.6-8.6
			S453.3,37.9,448.5,37.9z"/>
	</g>
</g>
<g>
	<g>
		<path class="st0" d="M448.5,116.8h-57.1c-4.8,0-8.6,3.9-8.6,8.6c0,4.8,3.9,8.6,8.6,8.6h57.1c4.8,0,8.6-3.9,8.6-8.6
			S453.3,116.8,448.5,116.8z"/>
	</g>
</g>
<g>
	<g>
		<path class="st0" d="M361.9,116.8h-13.6c-4.8,0-8.6,3.9-8.6,8.6c0,4.8,3.9,8.6,8.6,8.6h13.6c4.8,0,8.6-3.9,8.6-8.6
			S366.7,116.8,361.9,116.8z"/>
	</g>
</g>
<g>
	<g>
		<path class="st0" d="M448.5,77.3h-8.9c-4.8,0-8.6,3.9-8.6,8.6s3.9,8.6,8.6,8.6h8.9c4.8,0,8.6-3.9,8.6-8.6S453.3,77.3,448.5,77.3z"
			/>
	</g>
</g>
<g>
	<g>
		<path class="st0" d="M407.3,77.3h-59c-4.8,0-8.6,3.9-8.6,8.6s3.9,8.6,8.6,8.6h59c4.8,0,8.6-3.9,8.6-8.6S412.1,77.3,407.3,77.3z"/>
	</g>
</g>
<g>
	<g>
		<path class="st0" d="M462.9,0h-129c-20.1,0-36.4,16.3-36.4,36.4v96.7c0,20.1,16.3,36.4,36.4,36.4H351l-1,22.2
			c-0.1,3.2,1.5,6.3,4.3,7.9c1.3,0.8,2.8,1.1,4.3,1.1c1.6,0,3.3-0.5,4.7-1.4l46.1-29.8h53.4c20.1,0,36.4-16.3,36.4-36.4V36.4
			C499.3,16.3,483,0,462.9,0z M482,133.1c0,10.6-8.6,19.1-19.1,19.1H407c-1.7,0-3.3,0.5-4.7,1.4L368,175.8l0.6-14.5
			c0.1-2.4-0.8-4.6-2.4-6.3c-1.6-1.7-3.9-2.7-6.2-2.7h-26.1c-10.6,0-19.1-8.6-19.1-19.1V36.4c0-10.6,8.6-19.1,19.1-19.1h129
			c10.6,0,19.1,8.6,19.1,19.1L482,133.1L482,133.1z"/>
	</g>
</g>
<g>
	<g>
		<path class="st0" d="M286.8,391.4c-10.4-11.2-23.5-19.4-37.9-23.8c5-5.3,9.4-11.2,12.9-17.5h4.1c21.6,0,39.1-17.6,39.1-39.1v-98.6
			c0-67-54.5-121.4-121.4-121.4H139C72,90.8,17.5,145.3,17.5,212.2v80.2c0,13.7,11.2,24.9,24.9,24.9c2.7,0,5.4-0.5,8-1.3
			c1.7,19.5,9.9,37.6,23.3,51.6c-14.4,4.4-27.4,12.6-37.9,23.8c-14.9,16.1-23.1,37-23.1,58.9v53.1c0,4.8,3.9,8.6,8.6,8.6h280
			c4.8,0,8.6-3.9,8.6-8.6v-53.1C309.9,428.4,301.7,407.5,286.8,391.4z M255.3,239.2L220.2,190c-1.8-2.6-4.9-3.9-8.1-3.5
			c-3.1,0.4-5.8,2.5-7,5.4c-7.2,18.5-19.6,34.2-36,45.4c-16.4,11.2-35.5,17.1-55.3,17.1H67.3v-38.6c0-42.5,34.6-77.2,77.2-77.2h33.7
			c42.5,0,77.2,34.6,77.2,77.2L255.3,239.2L255.3,239.2z M269.2,332.5c1.6-5.4,2.6-10.9,3.1-16.5c2.5,0.8,5.2,1.3,8,1.3
			c2.4,0,4.7-0.3,6.9-1C285,324.7,277.9,331.2,269.2,332.5z M287.8,292.4c0,0.4,0,0.8-0.1,1.2c-0.3,1.6-1,3-2.1,4.2
			c-1.5,1.4-3.4,2.2-5.4,2.2c-4.2,0-7.6-3.4-7.6-7.6v-42.6c0-4.2,3.4-7.6,7.6-7.6s7.6,3.4,7.6,7.6V292.4z M50.1,292.4
			c0,2-0.8,4-2.2,5.4c-1.5,1.4-3.4,2.2-5.4,2.2c-4.2,0-7.6-3.4-7.6-7.6v-42.6c0-4.2,3.4-7.6,7.6-7.6c4.2,0,7.6,3.4,7.6,7.6V292.4z
			 M50.1,215.7v10.4c-2.4-0.8-5-1.2-7.6-1.2c-2.7,0-5.2,0.4-7.6,1.2v-13.9c0-57.4,46.7-104.2,104.2-104.2h44.7
			c57.4,0,104.1,46.7,104.1,104.2v13.9c-2.4-0.8-5-1.2-7.6-1.2s-5.2,0.4-7.6,1.2v-10.4c0-52.1-42.4-94.4-94.4-94.4h-33.7
			C92.4,121.3,50.1,163.7,50.1,215.7z M67.3,308.7v-16.3v-20.9h46.5c23.3,0,45.8-7,65.1-20.1c15-10.3,27.2-23.7,35.8-39.5l40.6,56.9
			v39.8c0,8.3-1.5,16.4-4.4,24.1h-58.2c-4.8,0-8.6,3.9-8.6,8.6s3.9,8.6,8.6,8.6h48.6c-4.5,5.9-9.9,11-16.2,15.1
			c-4.9,3.3-10.2,5.9-15.8,7.8c-0.1,0-0.2,0.1-0.2,0.1l-37.5,12.6c-6.6,2.2-13.9,2.2-20.5,0L113.5,373c-5.7-1.9-11.1-4.6-16.1-7.9
			C78.6,352.5,67.3,331.4,67.3,308.7z M212.2,433.4L170,410.7v-6.9c2.4-0.4,4.8-1,7.1-1.8l28-9.4L212.2,433.4z M152.7,403.8v6.9
			l-42.2,22.7l7.1-40.8l28,9.4C147.9,402.8,150.3,403.4,152.7,403.8z M152.7,494.7H30v-44.4c0-35,26.6-64.7,61-68.9
			c3.2,2,6.6,3.7,10.1,5.2l-10.6,61.3c-0.6,3.3,0.8,6.5,3.5,8.5c1.5,1.1,3.3,1.6,5,1.6c1.4,0,2.8-0.3,4.1-1l20.4-11l29.2,29.2
			L152.7,494.7L152.7,494.7z M139.3,437.5l22-11.8l22,11.8l-22,22L139.3,437.5z M292.7,494.7H170v-19.5l29.2-29.2l20.4,11
			c1.3,0.7,2.7,1,4.1,1c1.8,0,3.5-0.5,5-1.6c2.7-1.9,4-5.2,3.5-8.5l-10.6-61.3c3.5-1.5,6.8-3.3,10.1-5.2c34.5,4.1,61,33.8,61,68.9
			V494.7z"/>
	</g>
</g>
</svg>
