<?xml version="1.0" encoding="utf-8"?>
<!-- Generator: Adobe Illustrator 21.1.0, SVG Export Plug-In . SVG Version: 6.00 Build 0)  -->
<svg version="1.1" id="Capa_1" xmlns="http://www.w3.org/2000/svg" xmlns:xlink="http://www.w3.org/1999/xlink" x="0px" y="0px"
	 viewBox="0 0 512 512" style="enable-background:new 0 0 512 512;" xml:space="preserve">
<style type="text/css">
	.st0{fill:#009AAA;}
</style>
<g>
	<g>
		<g>
			<path class="st0" d="M369.4,151.1L369.4,151.1c2.3,0,4.4-0.9,6-2.5l83-83c3.3-3.3,3.3-8.7,0-12.1s-8.7-3.3-12.1,0l-83,83
				c-2.4,2.4-3.2,6.1-1.8,9.3C362.8,149.1,366,151.1,369.4,151.1z"/>
			<path class="st0" d="M511.8,463.9c-1.4-12.9-8.5-24.5-19.4-31.5l0,0l-66.9-43.3L356.4,320C479.1,185.8,511.5,11.8,511.9,10
				c0.5-2.7-0.4-5.6-2.4-7.5s-4.8-2.9-7.5-2.4C500.2,0.5,326.2,32.9,192,155.6l-69.1-69.1L79.6,19.6C72.6,8.7,61,1.6,48.1,0.2
				S22.4,3.4,13.2,12.6l-0.6,0.6c-9.2,9.2-13.7,22-12.3,34.9C1.6,61,8.7,72.5,19.6,79.6l66.9,43.3l69,69
				c-74.8,78.4-132.1,162-154,224.7c-3.4,9.7-1,20.4,6.3,27.6l59.9,59.9c7.2,7.3,18,9.7,27.7,6.3c62.7-21.9,146.3-79.3,224.7-154
				l69,69l43.3,66.9c7,10.9,18.6,18,31.5,19.4c12.9,1.4,25.7-3.2,34.9-12.3l0.6-0.6C508.6,489.6,513.1,476.8,511.8,463.9z
				 M492.3,19.7c-9.8,41.7-48,178.6-148,288.3l-13.2-13.2c37.1-41.5,44.5-94.1,16.1-122.6l-6.8-6.8c-28-27.9-81.8-20.5-123,15.7
				l-13.3-13.3C313.7,67.7,450.6,29.5,492.3,19.7z M315.3,204.1l-6.8-6.8c-13.9-13.8-32.6-21.7-52.2-22.1
				c27.6-13.6,56-13.8,72.1,2.3l6.8,6.8c16,16,15.8,44.1,2.1,71.5C336.8,236.3,328.9,217.8,315.3,204.1z M315.9,279.5l-83.3-83.3
				c22-8.6,46.9-3.5,63.7,13l0,0l6.8,6.8C319.7,232.8,324.7,257.7,315.9,279.5z M28.9,65.3C22.3,61,18,54.1,17.2,46.3
				c-0.8-7.8,1.9-15.5,7.4-21l0.6-0.6c5.5-5.5,13.2-8.3,21-7.4C54,18,61,22.3,65.3,28.9l40,61.8l-14.6,14.6L28.9,65.3z M89.8,494.4
				c-3.5,1.2-7.3,0.4-9.9-2.2l-60-60c-2.6-2.6-3.4-6.4-2.2-9.9c21.1-60.5,77-141.6,150-218.3l13.5,13.5
				c-40.1,44-56.9,64.5-71.8,84.2c-23.7,30.6-44.3,63.5-61.6,98.1c-6.5,13.6-3.6,29.8,7.1,40.3l17.2,17.2
				c6.7,6.8,15.8,10.6,25.3,10.6c5.2,0,10.4-1.2,15.1-3.4c53.9-25.8,120-74.2,182.4-133.4l13.4,13.4
				C231.4,417.4,150.2,473.3,89.8,494.4z M126.1,410.7l-24.8-24.8c-7.3-6.6-11.6-16-11.8-25.8c9.8-15.5,21-31.7,33.4-48.2
				c14.5-19.2,31-39.3,70.3-82.4l89.5,89.5c-40.2,38.6-83.9,73.3-130.7,103.6l0,0C142.1,422.3,132.7,418,126.1,410.7z M131.3,435
				c-9.1,5.2-17.9,9.9-26.4,14c-7,3.3-15.4,1.8-20.8-3.8l-17.3-17.3c-5.6-5.4-7.1-13.8-3.8-20.8c4-8.4,8.8-17.3,14-26.5
				c3,6.4,7.2,12.3,12.2,17.3l24.8,24.8C119,427.8,124.9,432,131.3,435z M395.8,408.1L103.9,116.2l12.3-12.3l291.9,291.9l-6.1,6.1
				L395.8,408.1z M487.4,486.7l-0.6,0.6c-5.5,5.5-13.2,8.3-21,7.4c-7.8-0.8-14.7-5.1-19-11.7l-40-61.8l14.6-14.6l61.8,40
				c6.6,4.2,10.8,11.2,11.7,19S492.9,481.2,487.4,486.7L487.4,486.7z"/>
		</g>
	</g>
</g>
</svg>
